Coordinates
version=1
nRows=24
nColumns=19
inDegrees=yes

Units are S.I. units (second, meters, Newtons, ...)
If the header above contains a line with 'inDegrees', this indicates whether rotational values are in degrees (yes) or radians (no).

endheader
time	pelvis_tilt	pelvis_list	pelvis_rotation	pelvis_tx	pelvis_ty	pelvis_tz	hip_flexion_r	hip_adduction_r	hip_rotation_r	knee_angle_r	knee_angle_r_beta	ankle_angle_r	hip_flexion_l	hip_adduction_l	hip_rotation_l	knee_angle_l	knee_angle_l_beta	ankle_angle_l
     15.00000000	     -0.84372065	     -7.39854658	     -3.87639633	      2.11150555	      0.88674749	      1.01523665	     29.63726878	      9.75187661	    -17.29182772	     30.10736102	      0.52547258	     -8.12994639	    -23.26354975	     -9.21935202	    -19.41727759	     51.07765234	      0.89147321	    -10.42027330
     15.00666667	     -0.53517258	     -7.53853669	     -4.02987308	      2.11175384	      0.88144324	      1.01506676	     29.59958571	      9.75853308	    -17.33682934	     32.68633212	      0.57048412	     -5.78829037	    -22.77217831	     -9.55453436	    -18.71195888	     54.17445432	      0.94552260	    -10.60156439
     15.01333333	     -0.02669378	     -7.82925642	     -4.24186611	      2.11192818	      0.87612013	      1.01493023	     29.20604418	     10.01564303	    -17.13027593	     35.20510165	      0.61444494	     -2.99275170	    -22.51032948	    -10.01839528	    -18.23375406	     57.24708141	      0.99915006	    -10.77943196
     15.02000000	      0.65201233	     -8.21769909	     -4.45977624	      2.11194648	      0.87086509	      1.01482019	     28.47974164	     10.44443445	    -16.76748824	     37.58466261	      0.65597611	      0.14497438	    -22.40486498	    -10.60260208	    -17.92907892	     60.31030137	      1.05261333	    -10.88855623
     15.02666667	      1.14453840	     -8.43502602	     -4.65465418	      2.11161496	      0.86542773	      1.01471124	     27.93658717	     10.71135698	    -16.33030487	     40.00511700	      0.69822101	      3.40362454	    -21.91736631	    -10.99742613	    -17.39686929	     63.43388906	      1.10713022	    -10.79305238
     15.03333333	      1.69051765	     -8.79413764	     -4.89687965	      2.11113806	      0.86013618	      1.01465390	     27.16996685	     11.21162018	    -15.78151495	     42.16945964	      0.73599591	      6.76020310	    -21.46763348	    -11.58808277	    -17.09694659	     66.54381904	      1.16140874	    -10.58638912
     15.04000000	      2.18817736	     -9.08386238	     -5.15122569	      2.11025157	      0.85493172	      1.01461898	     26.41375044	     11.64894757	    -15.21788934	     44.24579919	      0.77223488	      9.98679904	    -20.83306433	    -12.09049988	    -16.71972482	     69.66179206	      1.21582763	    -10.10366077
     15.04666667	      2.26572071	     -9.24208704	     -5.43278720	      2.10900313	      0.84964865	      1.01459098	     26.08470872	     11.98507730	    -14.62015926	     46.20883176	      0.80649626	     12.90027198	    -19.53875500	    -12.47734507	    -16.15169822	     72.85278473	      1.27152096	     -9.39839708
     15.05333333	      2.82247686	     -9.60389953	     -5.74772058	      2.10757141	      0.84516699	      1.01459346	     25.08465929	     12.53987239	    -13.97711988	     47.88261867	      0.83570935	     15.65310682	    -18.82338195	    -13.07428054	    -15.89038750	     75.83160990	      1.32351127	     -8.67457763
     15.06000000	      2.68580775	     -9.79224105	     -6.04457527	      2.10578636	      0.84044388	      1.01462446	     24.84954113	     12.92083721	    -13.41454550	     49.46926374	      0.86340153	     17.95804787	    -17.06605824	    -13.55961016	    -15.27141191	     78.94862796	      1.37791350	     -7.65291216
     15.06666667	      2.79159609	    -10.02552681	     -6.33898283	      2.10376725	      0.83645595	      1.01464700	     24.26070106	     13.32887201	    -12.82567743	     50.84775353	      0.88746072	     19.98580802	    -15.51640957	    -14.07054198	    -14.70341736	     81.87852515	      1.42904985	     -6.63065667
     15.07333333	      3.26786887	    -10.30431881	     -6.61979010	      2.10163462	      0.83334954	      1.01462083	     23.15326644	     13.74058025	    -12.18928380	     52.00657418	      0.90768595	     21.80468034	    -14.35666902	    -14.60848876	    -14.24357962	     84.55366860	      1.47573991	     -5.61353642
     15.08000000	      2.86122955	    -10.41244324	     -6.75733497	      2.09926382	      0.82998124	      1.01457934	     23.02315795	     13.94214953	    -11.82203978	     53.06611879	      0.92617849	     23.10760002	    -11.84520587	    -15.04934314	    -13.17371463	     87.35077026	      1.52455855	     -4.60051728
     15.08666667	      2.73458242	    -10.43336442	     -6.96940127	      2.09678167	      0.82742838	      1.01463681	     22.49294903	     14.07186319	    -11.25654583	     53.96339434	      0.94183891	     24.29239267	     -9.62867337	    -15.32464861	    -12.24188807	     89.83473013	      1.56791182	     -3.60840131
     15.09333333	      2.65116118	    -10.45641145	     -7.05333928	      2.09429425	      0.82549275	      1.01462356	     21.80607500	     14.13025964	    -10.82381940	     54.63828060	      0.95361789	     25.27533070	     -7.33991967	    -15.59998233	    -11.15996923	     92.10918799	      1.60760860	     -2.71794969
     15.10000000	      2.60036727	    -10.43887732	     -7.04385011	      2.09181527	      0.82413885	      1.01459548	     20.97672685	     14.09857145	    -10.47229498	     55.10506065	      0.96176474	     26.08013270	     -4.98856917	    -15.80664897	     -9.96233372	     94.14553182	      1.64314951	     -1.88552557
     15.10666667	      2.52167168	    -10.33221819	     -7.02515340	      2.08935949	      0.82332110	      1.01457440	     20.08066568	     13.97578827	    -10.07921553	     55.39477816	      0.96682127	     26.77362343	     -2.56014957	    -15.86726087	     -8.75118438	     95.90032081	      1.67377635	     -1.12867664
     15.11333333	      2.41485484	    -10.14603962	     -6.96359372	      2.08703812	      0.82294932	      1.01461095	     19.11601899	     13.74347257	     -9.74698723	     55.51684471	      0.96895173	     27.32311192	     -0.06709249	    -15.82096778	     -7.52440606	     97.39315962	      1.69983130	     -0.41543615
     15.12000000	      2.24892442	     -9.88416324	     -6.93178181	      2.08470570	      0.82306317	      1.01475094	     18.12212825	     13.46021294	     -9.36240587	     55.45494023	      0.96787129	     27.83332251	      2.49300786	    -15.64897653	     -6.35617209	     98.59074529	      1.72073312	      0.27784197
     15.12666667	      2.18116250	     -9.59805484	     -6.82581646	      2.08264212	      0.82380008	      1.01487346	     16.88795151	     13.11482832	     -9.04441442	     55.16350530	      0.96278479	     28.19108642	      4.89751214	    -15.44441446	     -5.26710217	     99.44641403	      1.73566735	      0.96760931
     15.13333333	      2.24886999	     -9.27036720	     -6.95132503	      2.08077678	      0.82513757	      1.01524502	     15.39529827	     12.81005731	     -8.39551431	     54.71665322	      0.95498575	     28.49296083	      6.93023985	    -15.20450182	     -4.60500711	     99.92056199	      1.74394280	      1.67757154
     15.14000000	      2.26594992	     -8.87502919	     -7.07645215	      2.07904590	      0.82698143	      1.01567331	     13.88248952	     12.44020207	     -7.72987944	     54.09697996	      0.94417042	     28.54029176	      8.96626689	    -14.91087798	     -4.05795291	    100.07928831	      1.74671309	      2.33592786
     15.14666667	      2.04662881	     -8.49787247	     -6.75219068	      2.07747626	      0.82884828	      1.01559082	     12.58697263	     11.92214607	     -7.74060129	     53.30487771	      0.93034562	     28.53977305	     11.44972766	    -14.53451340	     -3.03265811	    100.13524530	      1.74768973	      3.04653071
     15.15333333	      1.88556129	     -8.01814061	     -6.90724568	      2.07616297	      0.83142139	      1.01598196	     11.14957621	     11.45653948	     -7.10248417	     52.41292375	      0.91477809	     28.28223522	     13.49829588	    -14.16690689	     -2.75644724	     99.71735498	      1.74039617	      3.68812518
